<?xml version="1.0" standalone="no"?>
<!DOCTYPE svg PUBLIC "-//W3C//DTD SVG 20010904//EN"
 "http://www.w3.org/TR/2001/REC-SVG-20010904/DTD/svg10.dtd">
<svg version="1.0" xmlns="http://www.w3.org/2000/svg"
 width="258.000000pt" height="258.000000pt" viewBox="0 0 258.000000 258.000000"
 preserveAspectRatio="xMidYMid meet">
<metadata>
Created by potrace 1.11, written by Peter Selinger 2001-2013
</metadata>
<g transform="translate(0.000000,258.000000) scale(0.100000,-0.100000)"
fill="#000000" stroke="none">
<path d="M1185 2558 c-44 -4 -96 -10 -115 -14 -19 -4 -39 -7 -43 -6 -4 1 -16
-2 -27 -8 -11 -6 -32 -12 -47 -14 -37 -5 -158 -48 -208 -74 -22 -11 -44 -21
-50 -23 -17 -4 -137 -80 -180 -112 -60 -46 -173 -156 -167 -162 3 -3 -3 -5
-13 -5 -10 0 -16 -3 -13 -6 4 -3 -1 -14 -10 -23 -42 -44 -59 -68 -119 -166
-24 -38 -102 -205 -109 -230 -1 -5 -12 -46 -24 -89 -45 -169 -56 -357 -31
-536 7 -46 15 -88 18 -93 3 -4 7 -22 10 -40 3 -17 16 -61 30 -97 13 -36 25
-72 26 -80 1 -8 8 -19 15 -23 6 -4 12 -16 12 -26 0 -10 9 -30 21 -45 11 -14
18 -30 15 -35 -4 -5 -3 -11 2 -13 4 -1 29 -34 54 -73 26 -38 63 -87 82 -109
20 -21 36 -42 36 -47 0 -4 8 -10 18 -14 9 -3 28 -21 42 -39 14 -19 28 -32 33
-29 4 2 7 0 7 -5 0 -5 11 -15 25 -22 13 -7 22 -17 19 -22 -3 -4 1 -8 8 -8 8 0
28 -13 46 -29 17 -17 32 -27 32 -24 0 3 9 -2 20 -12 11 -10 20 -14 20 -10 0 4
8 1 18 -8 17 -15 159 -87 172 -87 4 0 25 -7 46 -17 22 -9 46 -17 54 -18 8 -1
35 -8 60 -15 25 -7 56 -14 70 -15 14 -2 25 -4 25 -5 0 -12 335 -18 405 -7 19
3 53 9 75 12 22 4 46 7 53 8 6 0 12 3 12 7 0 3 8 6 18 7 9 1 51 13 92 28 41
14 80 27 85 29 6 1 24 10 41 19 17 9 33 15 35 14 2 -1 3 0 2 2 -4 7 62 39 70
34 4 -2 7 1 7 6 0 6 7 11 16 11 8 0 12 5 9 10 -3 6 1 10 9 10 8 0 21 6 28 13
7 6 39 32 71 56 32 25 64 52 70 60 7 9 33 35 59 59 26 23 47 44 45 46 -1 2 12
20 30 39 17 19 29 38 26 41 -4 3 -2 6 3 6 6 0 26 27 45 60 18 33 38 60 42 60
5 0 6 4 2 9 -3 5 0 15 7 23 7 7 15 22 16 33 2 11 7 22 11 25 6 4 19 32 23 50
1 3 12 34 26 70 24 66 27 78 37 138 2 19 7 37 9 41 9 14 20 145 20 236 0 139
-17 263 -46 340 -16 42 -80 102 -123 114 -74 20 -216 -2 -229 -35 -3 -8 -10
-13 -15 -10 -8 6 -48 -72 -44 -86 2 -5 -1 -8 -5 -8 -10 0 -7 -120 6 -202 13
-84 7 -214 -12 -283 -9 -33 -19 -69 -21 -79 -4 -18 -55 -124 -91 -188 -8 -16
-20 -28 -26 -28 -6 0 -8 -3 -5 -6 4 -4 -3 -15 -15 -25 -11 -11 -18 -19 -15
-19 3 0 -11 -17 -31 -37 -20 -21 -39 -38 -42 -37 -3 0 -14 -11 -24 -24 -42
-54 -255 -171 -338 -186 -12 -3 -23 -5 -23 -6 0 -6 -55 -12 -145 -15 -103 -4
-209 10 -275 35 -16 6 -31 11 -33 11 -14 -5 -213 113 -220 131 -2 4 -7 8 -12
8 -24 0 -194 196 -184 212 3 4 -1 8 -9 8 -13 0 -31 33 -28 53 1 4 -3 7 -9 7
-6 0 -9 3 -8 7 0 5 -6 25 -15 45 -10 21 -17 44 -17 53 0 8 -4 15 -8 15 -4 0
-9 8 -10 18 0 9 -8 46 -15 82 -8 36 -13 103 -11 150 4 117 8 141 40 240 3 8 4
15 3 15 -7 0 88 172 102 186 10 10 20 27 24 38 3 12 11 19 16 16 5 -4 9 -1 9
5 0 6 25 36 55 67 30 31 55 54 55 51 0 -3 13 6 29 20 37 34 155 108 145 90 -4
-7 1 -6 12 3 66 55 310 97 439 74 87 -14 162 -16 216 -5 32 7 56 17 53 21 -3
5 1 9 8 9 15 0 62 57 65 79 1 9 6 34 10 56 9 41 9 62 0 105 -7 34 -29 80 -38
80 -4 0 -11 9 -14 20 -3 11 -13 20 -21 20 -9 0 -12 5 -8 13 4 6 4 9 0 5 -4 -3
-22 0 -40 7 -17 7 -51 16 -76 20 -25 4 -47 8 -50 10 -6 3 -137 16 -197 19 -21
1 -74 -2 -118 -6z"/>
<path d="M1927 2284 c-111 -28 -163 -94 -191 -244 -15 -79 -47 -150 -67 -150
-5 0 -9 -6 -9 -12 0 -23 -85 -72 -145 -84 -11 -2 -44 1 -74 7 -98 20 -203 18
-306 -5 -59 -13 -75 -19 -75 -29 0 -6 -3 -8 -6 -4 -10 10 -103 -53 -154 -105
-40 -41 -130 -188 -115 -188 3 0 1 -10 -4 -22 -7 -20 -23 -120 -24 -153 -3
-119 50 -283 111 -342 12 -12 22 -24 22 -27 0 -7 49 -56 56 -56 3 0 14 -8 25
-18 38 -36 144 -79 217 -88 145 -18 263 0 375 57 48 25 157 126 157 146 0 8 5
11 10 8 6 -3 10 1 10 9 0 8 7 22 16 30 8 9 13 16 10 16 -4 0 3 18 14 41 12 23
19 43 16 46 -3 3 0 15 6 26 15 28 19 200 7 262 -6 28 -10 69 -10 91 -1 42 33
124 51 124 6 0 9 4 8 10 -5 17 65 69 112 85 25 8 63 16 85 18 22 2 53 9 68 16
16 6 31 11 34 11 24 0 112 93 117 123 1 7 5 18 10 26 12 18 16 191 5 191 -5 0
-6 7 -3 15 4 8 1 15 -7 15 -7 0 -9 3 -6 6 8 8 -24 64 -35 64 -4 0 -8 6 -8 14
0 8 -28 29 -62 45 -73 36 -163 45 -241 25z"/>
</g>
</svg>
